<svg width="77" height="13" viewBox="0 0 77 13" fill="none" xmlns="http://www.w3.org/2000/svg">
<path d="M4.46973 12.5998C3.15349 12.5998 2.08405 12.1606 1.2614 11.3097C0.411325 10.4313 0 9.33333 0 8.01577C0 6.67075 0.438746 5.57279 1.28882 4.69441C2.16631 3.81604 3.26318 3.4043 4.57942 3.4043C5.45691 3.4043 6.22472 3.59644 6.93768 4.00818C7.65064 4.41992 8.17165 4.9689 8.50071 5.65513L7.70549 6.12177C7.40385 5.57279 6.99252 5.10615 6.41667 4.77676C5.86824 4.44737 5.23754 4.28267 4.57942 4.28267C3.53739 4.28267 2.6599 4.63951 2.00178 5.32574C1.31624 6.06687 0.987179 6.94525 0.987179 8.01577C0.987179 9.08629 1.31624 9.96466 1.97436 10.6509C2.63248 11.3371 3.45513 11.694 4.49715 11.694C5.15527 11.694 5.78597 11.5293 6.36182 11.1724C6.93768 10.843 7.37643 10.4038 7.67806 9.85486L8.47329 10.349C8.14423 11.0077 7.5958 11.5567 6.85541 11.9685C6.14245 12.4076 5.34722 12.5998 4.46973 12.5998Z" fill="white"/>
<path d="M9.35071 7.98745C9.35071 6.66988 9.78945 5.59936 10.6395 4.72099C11.517 3.84261 12.6139 3.37598 13.9027 3.37598C15.2189 3.37598 16.2884 3.81516 17.1659 4.72099C18.0434 5.59936 18.4547 6.69733 18.4547 7.98745C18.4547 9.30501 18.016 10.403 17.1659 11.2814C16.2884 12.1597 15.1915 12.6264 13.9027 12.6264C12.5865 12.6264 11.517 12.1872 10.6395 11.2814C9.76203 10.403 9.35071 9.30501 9.35071 7.98745ZM13.9027 11.7205C14.9447 11.7205 15.7948 11.3637 16.4529 10.65C17.1385 9.90889 17.4675 9.03052 17.4675 8.0149C17.4675 6.97183 17.1385 6.09345 16.4529 5.37977C15.7674 4.66609 14.9173 4.30925 13.9027 4.30925C12.8881 4.30925 12.038 4.66609 11.3525 5.40722C10.6669 6.1209 10.3379 6.99927 10.3379 8.0149C10.3379 9.05797 10.6669 9.93634 11.3525 10.65C12.038 11.3637 12.8881 11.7205 13.9027 11.7205Z" fill="white"/>
<path d="M21.1147 0H20.1276V12.407H21.1147V0Z" fill="white"/>
<path d="M22.7877 7.98745C22.7877 6.66988 23.2265 5.59936 24.0765 4.72099C24.954 3.84261 26.0509 3.37598 27.3397 3.37598C28.656 3.37598 29.7254 3.81516 30.6029 4.72099C31.4804 5.59936 31.8917 6.69733 31.8917 7.98745C31.8917 9.30501 31.453 10.403 30.6029 11.2814C29.7254 12.1597 28.6285 12.6264 27.3397 12.6264C26.0235 12.6264 24.954 12.1872 24.0765 11.2814C23.2265 10.403 22.7877 9.30501 22.7877 7.98745ZM27.3397 11.7205C28.3817 11.7205 29.2318 11.3637 29.8899 10.65C30.5755 9.90889 30.9045 9.03052 30.9045 8.0149C30.9045 6.97183 30.5755 6.09345 29.8899 5.37977C29.2044 4.66609 28.3543 4.30925 27.3397 4.30925C26.3251 4.30925 25.475 4.66609 24.7895 5.40722C24.104 6.1209 23.7749 6.99927 23.7749 8.0149C23.7749 9.05797 24.104 9.93634 24.7895 10.65C25.475 11.3637 26.3251 11.7205 27.3397 11.7205Z" fill="white"/>
<path d="M42.2843 10.8706L45.3555 3.62402H46.4524L42.5859 12.3803H41.9552L38.0887 3.62402H39.1856L42.2843 10.8706Z" fill="white"/>
<path d="M55.2001 7.63127C55.2001 7.74106 55.1727 8.01556 55.1453 8.39985H47.7688C47.8511 9.38802 48.2076 10.184 48.8108 10.7879C49.4415 11.3918 50.2642 11.6938 51.3336 11.6938C51.9095 11.6938 52.4854 11.6114 53.0612 11.4193C53.6645 11.2271 54.1581 10.9801 54.542 10.6507L55.0081 11.4193C54.5694 11.7761 53.9935 12.0506 53.3354 12.2976C52.6773 12.5172 51.9918 12.6545 51.3062 12.6545C49.798 12.6545 48.6463 12.2153 47.8785 11.3095C47.1107 10.4036 46.7268 9.30567 46.7268 8.04301C46.7268 6.72544 47.1381 5.62747 47.9334 4.7491C48.7286 3.87072 49.798 3.45898 51.1143 3.45898C52.2934 3.45898 53.2806 3.84327 54.0484 4.61185C54.8162 5.29808 55.2001 6.34115 55.2001 7.63127ZM51.1143 4.30991C50.1819 4.30991 49.4415 4.61185 48.8108 5.18829C48.2076 5.76472 47.8511 6.5333 47.7414 7.49402H54.1855C54.1855 6.5333 53.8839 5.76472 53.3354 5.18829C52.7596 4.5844 52.0192 4.30991 51.1143 4.30991Z" fill="white"/>
<path d="M64.5509 12.5991C63.8928 12.5991 63.2621 12.4344 62.7411 12.105C62.1927 11.7757 61.7539 11.309 61.4523 10.6777L62.2475 10.1836C62.7685 11.1992 63.5363 11.7208 64.5509 11.7208C65.1268 11.7208 65.6204 11.5561 65.9768 11.2267C66.3607 10.8973 66.5527 10.513 66.5527 10.0463C66.5527 9.46992 66.1688 9.00328 65.4284 8.61899C65.209 8.50919 64.8526 8.37195 64.3864 8.1798C63.838 7.96021 63.4815 7.79551 63.3444 7.71317C62.412 7.24653 61.9459 6.5603 61.9459 5.65447C61.9459 4.96824 62.1927 4.41926 62.6862 3.98007C63.1798 3.54088 63.838 3.32129 64.6332 3.32129C65.8397 3.32129 66.7172 3.78793 67.2657 4.69375L66.5801 5.24273C66.1688 4.52905 65.5107 4.17221 64.6058 4.17221C64.0573 4.17221 63.646 4.30946 63.3444 4.5565C63.0427 4.831 62.8782 5.16039 62.8782 5.59957C62.8782 6.17601 63.2073 6.6152 63.838 6.94459L64.8251 7.38377C65.4284 7.63082 65.8397 7.79551 66.0043 7.90531C67.0463 8.3994 67.5399 9.11308 67.5399 10.0189C67.5399 10.76 67.2657 11.3639 66.6898 11.8854C66.1688 12.3521 65.4558 12.5991 64.5509 12.5991Z" fill="white"/>
<path d="M77 7.63127C77 7.74106 76.9726 8.01556 76.9452 8.39985H69.5688C69.651 9.38802 70.0075 10.184 70.6108 10.7879C71.2415 11.3918 72.0641 11.6938 73.1336 11.6938C73.7094 11.6938 74.2853 11.6114 74.8611 11.4193C75.4644 11.2271 75.958 10.9801 76.3419 10.6507L76.8081 11.4193C76.3693 11.7761 75.7935 12.0506 75.1354 12.2976C74.4772 12.5172 73.7917 12.6545 73.1062 12.6545C71.598 12.6545 70.4463 12.2153 69.6784 11.3095C68.9106 10.4036 68.5267 9.30567 68.5267 8.04301C68.5267 6.72544 68.9381 5.62747 69.7333 4.7491C70.5285 3.87072 71.598 3.45898 72.9142 3.45898C74.0933 3.45898 75.0805 3.84327 75.8483 4.61185C76.6161 5.29808 77 6.34115 77 7.63127ZM72.9142 4.30991C71.9819 4.30991 71.2415 4.61185 70.6108 5.18829C70.0075 5.76472 69.651 6.5333 69.5413 7.49402H75.958C75.958 6.5333 75.6564 5.76472 75.1079 5.18829C74.5595 4.5844 73.8191 4.30991 72.9142 4.30991Z" fill="white"/>
<path d="M57.9421 12.3798H56.9823V8.07024C56.9823 5.73706 58.8195 3.73327 61.1504 3.54112C61.2601 3.54112 61.3972 3.51367 61.5343 3.51367V4.47439C61.4246 4.47439 61.3423 4.47439 61.2327 4.47439C59.3954 4.61164 57.9695 6.17625 57.9695 8.01534V12.3798H57.9421Z" fill="white"/>
<path d="M34.0306 12.3798H33.0708V8.07024C33.0708 5.73706 34.9081 3.73327 37.2389 3.54112C37.376 3.54112 37.4857 3.51367 37.6228 3.51367V4.47439C37.5131 4.47439 37.4308 4.47439 37.3212 4.47439C35.4839 4.61164 34.058 6.17625 34.058 8.01534V12.3798H34.0306Z" fill="white"/>
</svg>
